<svg width="48" height="46" viewBox="0 0 48 46" fill="none" xmlns="http://www.w3.org/2000/svg">
<path d="M42 23C42 32.9411 33.9411 41 24 41C14.0589 41 6 32.9411 6 23C6 13.0589 14.0589 5 24 5C33.9411 5 42 13.0589 42 23ZM11.5766 23C11.5766 29.8612 17.1388 35.4234 24 35.4234C30.8612 35.4234 36.4234 29.8612 36.4234 23C36.4234 16.1388 30.8612 10.5766 24 10.5766C17.1388 10.5766 11.5766 16.1388 11.5766 23Z" fill="#FF0000"/>
<path d="M11.7626 31.7626L10.5251 33L13 35.4749L14.2374 34.2374L13 33L11.7626 31.7626ZM35.2374 13.2374C35.9209 12.554 35.9209 11.446 35.2374 10.7626C34.554 10.0791 33.446 10.0791 32.7626 10.7626L34 12L35.2374 13.2374ZM13 33L14.2374 34.2374L35.2374 13.2374L34 12L32.7626 10.7626L11.7626 31.7626L13 33Z" fill="#FF0000"/>
<path d="M35.2374 31.7626L36.4749 33L34 35.4749L32.7626 34.2374L34 33L35.2374 31.7626ZM11.7626 13.2374C11.0791 12.554 11.0791 11.446 11.7626 10.7626C12.446 10.0791 13.554 10.0791 14.2374 10.7626L13 12L11.7626 13.2374ZM34 33L32.7626 34.2374L11.7626 13.2374L13 12L14.2374 10.7626L35.2374 31.7626L34 33Z" fill="#FF0000"/>
</svg>
