<svg width="48" height="46" viewBox="0 0 48 46" fill="none" xmlns="http://www.w3.org/2000/svg">
<circle cx="24" cy="23" r="12" fill="#FF0000"/>
<path d="M12.3183 20.3139C12.0509 21.2427 12.587 22.2124 13.5158 22.4798C14.4446 22.7472 15.4143 22.2111 15.6817 21.2823L14 20.7981L12.3183 20.3139ZM20.5183 4.48417L21.0024 2.80249L17.6391 1.8341L17.1549 3.51578L18.8366 3.99998L20.5183 4.48417ZM14 20.7981L15.6817 21.2823L20.5183 4.48417L18.8366 3.99998L17.1549 3.51578L12.3183 20.3139L14 20.7981Z" fill="#FF0000"/>
<path d="M27.3183 42.3139L26.8341 43.9956L30.1975 44.964L30.6817 43.2823L29 42.7981L27.3183 42.3139ZM35.5183 26.4842C35.7857 25.5554 35.2495 24.5857 34.3208 24.3183C33.392 24.0509 32.4223 24.587 32.1549 25.5158L33.8366 26L35.5183 26.4842ZM29 42.7981L30.6817 43.2823L35.5183 26.4842L33.8366 26L32.1549 25.5158L27.3183 42.3139L29 42.7981Z" fill="#FF0000"/>
</svg>
